<?xml version="1.0" encoding="utf-8"?>
<svg viewBox="194.5999755859375 330.7000427246094 138 140.19992065429688" width="138" height="140.19992065429688" xmlns="http://www.w3.org/2000/svg"><g transform="matrix(1, 0, 0, 1, 0, 0)">
		<path d="M322.4,443.7c-4.7,0.4-6.9-3.7-9.3-5.3c-7.3-10.5-21.6-9.8-32.5-9.7c-14.8,1.7-30,1.8-44.8-2.1c-1.7-3.8-0.5-15.7,12-14.3&#10;&#9;&#9;&#9;c11.7,1.3,12.9,16.1,5.4,14c1.8-1.5,0.9-5-2.5-5.4c-3-0.3-3.8,2.7-2.9,4.4c2,4,8.4,3.8,11.1,0.1c0.5,3.6,4.5,3.5,6.1,2.4&#10;&#9;&#9;&#9;c0.6-0.4,1.4-1,1.2-1c-0.4-0.1-0.7-0.1-1.2-0.1c-1.7-0.2-2.3-0.7-2.9-1.2c-0.9-0.9-2.6-2.6-3-3.7c-1.2-3.8-3.2-8.5-10.3-10.2&#10;&#9;&#9;&#9;c-6.4-1.5-16.3,2-15.3,14.3c-13.8-4.6-20.9-13.2-23-19.8c-0.3-1-0.9-0.7-0.6,0.2c4.2,15.7,19,21.6,24.6,23.3&#10;&#9;&#9;&#9;c4,10.5,20.7,15.9,35.9,11.9c-0.7,2-0.3,4.5,1.6,6.3c0.7,0.8,1.5,1.2,1.6,1.2c0.1-0.1,0-0.8,0-1.6c1.2-9.7,21.5-18.8,34.4-11.4&#10;&#9;&#9;&#9;c-1-0.2-3.5-0.1-4.9,2.1c-0.6,1-0.3,0.7,0.8,0.4c0.9-0.3,2-0.2,2.8-0.2c1.7,0.1,3.2,0.7,4.5,1.8c5.4,4.5,5.8,16.1-6,20.5&#10;&#9;&#9;&#9;c-7.5,1.6-12.3-2.1-14-6.4c-1.1-2.9-1.1-6.1,0.7-8c0.6-0.6,1.4-1.3,1.3-1.5c-0.2-0.4-1.8-0.1-2.4,0.1c-5.3,1.9-5.7,11.6,1.3,16&#10;&#9;&#9;&#9;c6,3.6,16,5.1,22.6-6c0.2-0.4,0.2-0.1,0.1,0.1c-3.9,16-27.6,14.3-32.7,0.2c-4.8-14.6,14.7-20.4,21.7-8.9c3.8,7.9-3.9,11.2-7,8.6&#10;&#9;&#9;&#9;c3.8,0.2,4.7-5.2,0.5-5.9c-3.1-0.3-4.4,2.7-2.6,5.4c4.3,5.6,14.6,0.2,9.8-8.4c-3.2-6.6-14.2-9.1-20.4-3.5c-7.6,6.9-3,18,4.1,21.6&#10;&#9;&#9;&#9;c-0.5,2.6,3.4,6.2,11.6,6.5c16.7-0.3,18.7-21,16.8-25.3c1.6,0.9,3.5,1,5.2-0.3C322.4,444.5,323,443.7,322.4,443.7z M304.8,433.6&#10;&#9;&#9;&#9;c-8.7-2.5-18.5-0.7-27.1,1.7c-23.1,7.8-36,1.9-40.2-4.9c3,0.6,6.3,1.1,9.1,1.1c2.9,1.7,10.1,5.9,29.3,1.9&#10;&#9;&#9;&#9;C285.3,431.3,295.4,429.5,304.8,433.6C305.1,433.6,305,433.7,304.8,433.6z" style="fill: rgb(204, 204, 204); opacity: 1;"/>
		<path d="M221.9,338.6c-0.3,1.3,0.7,3.5,2.2,3.1c1.1-0.3,1.1-2.3-1.2-3.2c0.1-2.3,2.2-5.5,5.4-5.8c6-1.2,12.4,8.9,4.7,16.4&#10;&#9;&#9;&#9;c-0.6-0.4-1.4-0.9-2.2-1.2c-1.5-1.8-3.6-4-7-3.8c-9.6-0.4-19.1,7.6-23.1,15.9c-3,8.3-2.9,17.2,3.3,24c2.3,2.1,4.5,4.3,7.6,5.6&#10;&#9;&#9;&#9;c-2.8,3.6-4.3,7.3-2.4,13.9c1.1-12.1,6.6-11.2,11.4-11.6c7.1-0.5,11.5,4.7,13.3,8.4c5.5,12.2-6,18.5-11.4,13.4&#10;&#9;&#9;&#9;c-7-7.7,2.3-14.6,6.1-10.8c-2.5,0.7-3,2.6-1.8,4c1.8,1.9,4.8,0.8,4.4-2.5c-0.5-2.4-2.3-3.3-4.1-4.4c0.4-2-4.4-3-6.9,2&#10;&#9;&#9;&#9;c-1.8,4.3-1.4,9.5,1.2,12.2c8,7.9,18.9-2.5,14.7-14c0-0.1,1.7,0.7,1.8,0.8c7.5,10.7,8.1-0.2,11.9,4.9c3.2,4.3,8.2,12,19.1,17.3&#10;&#9;&#9;&#9;c12.7,6.2,32.8,4.9,31.9,4.1c-2.9-2.7-16.9,2.3-32.1-5.3c-6.5-3.3-12.9-9.8-18.3-17.8c-3.7-5.3-8.3-0.5-16.8-8.8&#10;&#9;&#9;&#9;c1.4-1.7,1.8-4.1,1.6-5.5c11.4-5.3,16.9-26.2,1.2-38.4c6.5-10.5-1.1-20.8-7.5-19.9C225.1,332.3,222.5,334.4,221.9,338.6z&#10;&#9;&#9;&#9; M213.6,360.7c10-5.8,19.5-0.7,22,4.6c0.3,0.8,0.6,1.3,1.1-0.4c1.1-3-2.2-7.6-5.1-8.7c2.1-1.3,2.8-2.4,4-3.7&#10;&#9;&#9;&#9;c15.9,13.1,7.2,32.4-0.8,35.9c-0.2-0.5-0.5-1.1-0.8-1.6c4-4.5,3.3-10.8,2.3-14c-5.7-17.4-23.9-8.9-19.7,2.9&#10;&#9;&#9;&#9;c3.4,8.5,14.3,6.3,12.5-2.4c-0.5-1.8-1.6-2.6-3.2-2.3c-2.8,0.8-2.5,4.1,0.2,4.7c0.8,0.1,1.8-0.6,2-1.2c0.4,7.2-8.4,7.4-10.6,0.9&#10;&#9;&#9;&#9;c-2.9-11.2,12.2-15.2,15.7-4c2.8,9.7-6.6,20.4-15.1,17.5c-5.4-1.9-9.3-8.2-8.1-14.1c2,1.8,4.9-0.6,3.9-2.8&#10;&#9;&#9;&#9;c-1.3-2.7-3.7-2.1-5.1-0.2c-2.6,3.5-0.6,11.6,5.5,16.9c0,0,0,0.1,0,0.1C206,386.1,197.8,371.3,213.6,360.7z M232,349.9&#10;&#9;&#9;&#9;c-5.4,4.6-12.1,4.2-17.9,7.8c-7,3-16.1,14.1-7.6,27.1c0,0.1,0,0.1,0,0c-11.9-11.9-4.2-29.3,8-35.5&#10;&#9;&#9;&#9;C220,347.1,226.8,346.5,232,349.9z" style="fill: rgb(204, 204, 204); opacity: 1;"/>
		<path d="M328.4,454.3c4.2-9.3-2.3-22.6-14.7-27.8c-6.7-3-15.7-4-26.7-4.5c-2.2-0.2-2.2-0.3,0.1-0.4c9.5-0.9,18.9-1.6,26.2,2.4&#10;&#9;&#9;&#9;c4.4,2.5,2.6,0.6,0.6-1.4c-3.3-3-6.8-4.4-10.7-5.2c-8.4-1.6-16.6,2.4-24.9,1.1c-6.6-0.7-13.2-4.9-15.5-11.4&#10;&#9;&#9;&#9;c-5.8-18.4,13.6-25.6,22.5-21.2c1.6,0.8,2.2,0.2,0.7-1.3c-7.5-7.6-18.1-5.7-21.1,1.9c-7,2.7-10.8,13.2-4.6,23.3&#10;&#9;&#9;&#9;c0.4,0.5,0.2,0.7-0.3,0.1c-7.5-9.8-9.1-23,4.2-33.5c16.6-10.9,34.8,0.4,35.3,16.4c-0.2,17.1-18.7,22.6-23.5,9&#10;&#9;&#9;&#9;c-1.3-4.9,3.6-11.1,9.1-8.2c-2,1.4-2.4,2.8-2.3,4.2c0.2,1.2,1.4,2.9,3.4,3.2c2.5,0.3,3.9-0.8,4.4-3.2c0.3-2.6-1.6-5.6-5.7-6.6&#10;&#9;&#9;&#9;c-7.6-1.8-11.7,4.8-10.5,11.1c4.3,12.4,21.5,12.1,28.6,0c3.1-5.6,3.2-13.4-2.6-19.2c2.3-12.3-13.1-25.8-33.5-13.7&#10;&#9;&#9;&#9;c-0.2-2.3-5.5-8.1-14.1-5.7c-0.7,0.2-0.5,0.3-0.2,0.6c3.4,3.4,5.6,11.5,2.4,17.4c-2.3,4.2-6.4,8.4-14.2,8.5c-0.3,0-0.4,0-0.1,0.5&#10;&#9;&#9;&#9;c2.3,4.1,6.6,6.7,11.2,6.5c2.9,18.2,16.4,23.5,21.3,25.6c11.7,4.3,23,2.6,34,6.9c15.8,6.1,21.7,18.5,19.9,24.9&#10;&#9;&#9;&#9;C326.6,456.3,327.7,456,328.4,454.3z" style="fill: rgb(204, 204, 204); opacity: 1;"/>
	</g></svg>